<svg width="514" height="313" viewBox="0 0 514 313" fill="none" xmlns="http://www.w3.org/2000/svg">
<path d="M294.784 105.527C294.121 106.896 293.153 107.797 291.881 108.231C290.609 108.665 289.326 108.531 288.032 107.83L243.094 83.4757C238.081 80.672 234.132 76.9338 231.25 72.2611C228.4 67.5199 226.838 62.3968 226.565 56.8916C226.291 51.3865 227.448 45.9651 230.034 40.6275C232.653 35.2214 236.188 31.0457 240.638 28.1005C245.056 25.0517 249.9 23.4002 255.17 23.1459C260.409 22.7881 265.616 24.0118 270.792 26.8172C275.904 29.5875 279.918 33.2748 282.834 37.8791C285.783 42.4149 287.444 47.3328 287.817 52.6326C288.19 57.9325 287.15 63.1144 284.696 68.1783C282.607 72.4895 279.876 75.9342 276.503 78.5124C273.129 81.0907 269.439 82.8059 265.432 83.658L292.607 98.3861C293.902 99.0874 294.754 100.111 295.164 101.456C295.607 102.733 295.48 104.09 294.784 105.527ZM275.942 65.5074C277.699 61.8806 278.465 58.1917 278.24 54.441C277.984 50.5867 276.83 47.0669 274.778 43.8816C272.696 40.5928 269.875 37.9841 266.316 36.0554C262.693 34.0916 259.043 33.1937 255.367 33.3615C251.66 33.4259 248.284 34.491 245.241 36.5569C242.166 38.5192 239.75 41.3138 237.992 44.9407C236.235 48.5676 235.485 52.3081 235.741 56.1624C236.031 59.9483 237.202 63.4338 239.253 66.6191C241.304 69.8044 244.141 72.3789 247.765 74.3427C251.324 76.2713 254.957 77.2035 258.664 77.1392C262.307 77.0398 265.666 76.0089 268.741 74.0465C271.784 71.9806 274.184 69.1343 275.942 65.5074Z" fill="#E6F5C6"/>
<path d="M283.917 69.7253C281.33 75.063 277.828 79.2562 273.41 82.3049C268.96 85.2502 264.084 86.8842 258.78 87.207C253.51 87.4613 248.319 86.2033 243.208 83.433C238.096 80.6627 234.098 77.0272 231.214 72.5264C228.265 67.9905 226.604 63.0726 226.231 57.7728C225.793 52.4379 226.817 47.2042 229.304 42.0719C231.36 37.8292 234.074 34.4187 237.448 31.8404C240.854 29.1937 244.545 27.4785 248.519 26.6948L221.343 11.9667C219.984 11.2303 219.132 10.2069 218.787 8.8965C218.377 7.55102 218.503 6.19397 219.166 4.82535C219.863 3.38829 220.847 2.45289 222.119 2.01915C223.327 1.55035 224.61 1.68415 225.968 2.42056L270.906 26.7745C275.92 29.5781 279.851 33.3505 282.701 38.0917C285.584 42.7645 287.145 47.8876 287.386 53.4612C287.659 58.9663 286.503 64.3877 283.917 69.7253ZM275.958 65.4121C277.748 61.7168 278.531 57.9938 278.306 54.243C278.016 50.4572 276.846 46.9716 274.795 43.7863C272.712 40.4975 269.859 37.8713 266.235 35.9075C262.612 33.9438 258.962 33.0458 255.286 33.2137C251.644 33.3131 248.317 34.3615 245.307 36.3589C242.232 38.3213 239.799 41.1501 238.009 44.8454C236.285 48.4038 235.551 52.1102 235.807 55.9645C235.999 59.7837 237.104 63.3202 239.122 66.5739C241.173 69.7592 244.011 72.3337 247.634 74.2974C251.258 76.2612 254.923 77.2109 258.631 77.1465C262.307 76.9787 265.699 75.8794 268.807 73.8486C271.85 71.7827 274.234 68.9705 275.958 65.4121Z" fill="#E6F5C6"/>
<path d="M18.3605 311.952C16.4832 311.952 14.9045 311.312 13.6245 310.032C12.4298 308.837 11.8325 307.301 11.8325 305.424V247.056C11.9178 240.315 13.4965 234.256 16.5685 228.88C19.6405 223.504 23.8218 219.28 29.1125 216.208C34.4032 213.051 40.3765 211.472 47.0325 211.472C53.7738 211.472 59.7898 213.051 65.0805 216.208C70.3712 219.28 74.5525 223.504 77.6245 228.88C80.7818 234.256 82.3605 240.315 82.3605 247.056C82.3605 253.797 80.9098 259.856 78.0085 265.232C75.1925 270.523 71.3098 274.747 66.3605 277.904C61.4112 280.976 55.8218 282.512 49.5925 282.512C44.5578 282.512 39.9072 281.488 35.6405 279.44C31.4592 277.307 27.8752 274.448 24.8885 270.864V305.424C24.8885 307.301 24.2912 308.837 23.0965 310.032C21.9018 311.312 20.3232 311.952 18.3605 311.952ZM47.0325 270.992C51.3845 270.992 55.2672 269.968 58.6805 267.92C62.0938 265.787 64.7818 262.928 66.7445 259.344C68.7925 255.675 69.8165 251.579 69.8165 247.056C69.8165 242.448 68.7925 238.352 66.7445 234.768C64.7818 231.099 62.0938 228.24 58.6805 226.192C55.2672 224.059 51.3845 222.992 47.0325 222.992C42.7658 222.992 38.8832 224.059 35.3845 226.192C31.9712 228.24 29.2832 231.099 27.3205 234.768C25.3578 238.352 24.3765 242.448 24.3765 247.056C24.3765 251.579 25.3578 255.675 27.3205 259.344C29.2832 262.928 31.9712 265.787 35.3845 267.92C38.8832 269.968 42.7658 270.992 47.0325 270.992ZM131.167 282.512C124.937 282.512 119.348 280.976 114.399 277.904C109.449 274.747 105.524 270.523 102.623 265.232C99.8065 259.856 98.3985 253.797 98.3985 247.056C98.3985 240.315 99.9345 234.256 103.007 228.88C106.164 223.504 110.388 219.28 115.679 216.208C121.055 213.051 127.071 211.472 133.727 211.472C140.383 211.472 146.356 213.051 151.647 216.208C156.937 219.28 161.119 223.504 164.191 228.88C167.348 234.256 168.927 240.315 168.927 247.056H163.935C163.935 253.797 162.484 259.856 159.583 265.232C156.767 270.523 152.884 274.747 147.935 277.904C142.985 280.976 137.396 282.512 131.167 282.512ZM133.727 270.992C138.079 270.992 141.961 269.968 145.375 267.92C148.788 265.787 151.476 262.928 153.439 259.344C155.401 255.675 156.383 251.579 156.383 247.056C156.383 242.448 155.401 238.352 153.439 234.768C151.476 231.099 148.788 228.24 145.375 226.192C141.961 224.059 138.079 222.992 133.727 222.992C129.46 222.992 125.577 224.059 122.079 226.192C118.665 228.24 115.935 231.099 113.887 234.768C111.924 238.352 110.943 242.448 110.943 247.056C110.943 251.579 111.924 255.675 113.887 259.344C115.935 262.928 118.665 265.787 122.079 267.92C125.577 269.968 129.46 270.992 133.727 270.992ZM162.399 282.128C160.521 282.128 158.943 281.531 157.663 280.336C156.468 279.056 155.871 277.477 155.871 275.6V256.016L158.303 242.448L168.927 247.056V275.6C168.927 277.477 168.287 279.056 167.007 280.336C165.812 281.531 164.276 282.128 162.399 282.128ZM201.052 312.72C200.198 312.72 199.174 312.464 197.98 311.952C194.225 310.245 193.201 307.557 194.908 303.888L233.948 215.696C235.654 212.112 238.342 211.088 242.012 212.624C245.852 214.245 246.918 216.933 245.212 220.688L206.044 308.752C205.02 311.397 203.356 312.72 201.052 312.72ZM216.156 279.184C214.534 279.867 212.998 279.952 211.548 279.44C210.182 278.843 209.073 277.733 208.22 276.112L178.908 220.432C178.054 218.811 177.926 217.275 178.524 215.824C179.206 214.288 180.358 213.179 181.98 212.496C183.601 211.813 185.137 211.771 186.588 212.368C188.038 212.88 189.148 213.947 189.916 215.568L217.948 271.248C218.801 272.869 219.1 274.448 218.844 275.984C218.673 277.435 217.777 278.501 216.156 279.184ZM292.857 282.512C286.201 282.512 280.228 280.976 274.937 277.904C269.647 274.747 265.465 270.48 262.393 265.104C259.321 259.728 257.743 253.669 257.657 246.928V188.56C257.657 186.597 258.255 185.019 259.449 183.824C260.729 182.629 262.308 182.032 264.185 182.032C266.148 182.032 267.727 182.629 268.921 183.824C270.116 185.019 270.713 186.597 270.713 188.56V223.12C273.7 219.536 277.284 216.72 281.465 214.672C285.732 212.539 290.383 211.472 295.417 211.472C301.647 211.472 307.236 213.051 312.186 216.208C317.135 219.28 321.017 223.504 323.834 228.88C326.735 234.171 328.186 240.187 328.186 246.928C328.186 253.669 326.607 259.728 323.45 265.104C320.377 270.48 316.196 274.747 310.906 277.904C305.615 280.976 299.599 282.512 292.857 282.512ZM292.857 270.992C297.209 270.992 301.092 269.968 304.506 267.92C307.919 265.787 310.607 262.885 312.57 259.216C314.618 255.547 315.642 251.451 315.642 246.928C315.642 242.32 314.618 238.224 312.57 234.64C310.607 231.056 307.919 228.24 304.506 226.192C301.092 224.059 297.209 222.992 292.857 222.992C288.591 222.992 284.708 224.059 281.209 226.192C277.796 228.24 275.108 231.056 273.145 234.64C271.183 238.224 270.201 242.32 270.201 246.928C270.201 251.451 271.183 255.547 273.145 259.216C275.108 262.885 277.796 265.787 281.209 267.92C284.708 269.968 288.591 270.992 292.857 270.992ZM377.248 282.64C371.36 282.64 366.069 281.403 361.376 278.928C356.768 276.368 353.098 272.656 350.368 267.792C347.722 262.928 346.4 256.955 346.4 249.872V218.384C346.4 216.507 346.997 214.971 348.192 213.776C349.472 212.496 351.05 211.856 352.928 211.856C354.805 211.856 356.341 212.496 357.536 213.776C358.816 214.971 359.456 216.507 359.456 218.384V249.872C359.456 254.651 360.352 258.619 362.144 261.776C363.936 264.848 366.368 267.152 369.44 268.688C372.512 270.139 375.968 270.864 379.808 270.864C383.477 270.864 386.72 270.139 389.536 268.688C392.437 267.237 394.741 265.275 396.448 262.8C398.154 260.325 399.008 257.552 399.008 254.48H407.072C407.072 259.771 405.749 264.549 403.104 268.816C400.544 273.083 397.002 276.453 392.48 278.928C388.042 281.403 382.965 282.64 377.248 282.64ZM405.536 282C403.658 282 402.08 281.403 400.8 280.208C399.605 278.928 399.008 277.349 399.008 275.472V218.384C399.008 216.421 399.605 214.843 400.8 213.648C402.08 212.453 403.658 211.856 405.536 211.856C407.498 211.856 409.077 212.453 410.272 213.648C411.466 214.843 412.064 216.421 412.064 218.384V275.472C412.064 277.349 411.466 278.928 410.272 280.208C409.077 281.403 407.498 282 405.536 282ZM466.952 282.512C460.296 282.512 454.28 280.976 448.904 277.904C443.613 274.747 439.389 270.48 436.232 265.104C433.16 259.728 431.624 253.669 431.624 246.928C431.624 240.187 433.032 234.171 435.848 228.88C438.749 223.504 442.674 219.28 447.624 216.208C452.573 213.051 458.162 211.472 464.392 211.472C469.426 211.472 474.077 212.539 478.344 214.672C482.61 216.72 486.194 219.536 489.096 223.12V188.56C489.096 186.597 489.693 185.019 490.888 183.824C492.168 182.629 493.746 182.032 495.624 182.032C497.586 182.032 499.165 182.629 500.36 183.824C501.554 185.019 502.152 186.597 502.152 188.56V246.928C502.152 253.669 500.573 259.728 497.416 265.104C494.344 270.48 490.162 274.747 484.872 277.904C479.581 280.976 473.608 282.512 466.952 282.512ZM466.952 270.992C471.304 270.992 475.186 269.968 478.6 267.92C482.013 265.787 484.701 262.885 486.664 259.216C488.626 255.547 489.608 251.451 489.608 246.928C489.608 242.32 488.626 238.224 486.664 234.64C484.701 231.056 482.013 228.24 478.6 226.192C475.186 224.059 471.304 222.992 466.952 222.992C462.685 222.992 458.802 224.059 455.304 226.192C451.89 228.24 449.16 231.056 447.112 234.64C445.149 238.224 444.168 242.32 444.168 246.928C444.168 251.451 445.149 255.547 447.112 259.216C449.16 262.885 451.89 265.787 455.304 267.92C458.802 269.968 462.685 270.992 466.952 270.992Z" fill="#E6F5C6"/>
</svg>
