<svg width="41" height="40" viewBox="0 0 41 40" fill="none" xmlns="http://www.w3.org/2000/svg">
<path d="M27.167 16.6665L29.2112 18.4285C30.0707 19.1692 30.5003 19.5397 30.5003 19.9998C30.5003 20.46 30.0707 20.8305 29.2112 21.5712L27.167 23.3332" stroke="#1C1C1C" strokeWidth="1.5" strokeLinecap="round" strokeLinejoin="round"/>
<path d="M13.8333 16.6665L11.7891 18.4285C10.9297 19.1692 10.5 19.5397 10.5 19.9998C10.5 20.46 10.9297 20.8305 11.7891 21.5712L13.8333 23.3332" stroke="#1C1C1C" strokeWidth="1.5" strokeLinecap="round" strokeLinejoin="round"/>
<path d="M22.1663 15L18.833 25" stroke="#1C1C1C" strokeWidth="1.5" strokeLinecap="round" strokeLinejoin="round"/>
<path d="M4.66699 19.9998C4.66699 12.5359 4.66699 8.80399 6.98573 6.48524C9.30448 4.1665 13.0364 4.1665 20.5003 4.1665C27.9642 4.1665 31.6962 4.1665 34.015 6.48524C36.3337 8.80399 36.3337 12.5359 36.3337 19.9998C36.3337 27.4637 36.3337 31.1957 34.015 33.5145C31.6962 35.8332 27.9642 35.8332 20.5003 35.8332C13.0364 35.8332 9.30448 35.8332 6.98573 33.5145C4.66699 31.1957 4.66699 27.4637 4.66699 19.9998Z" stroke="#1C1C1C" strokeWidth="1.5"/>
</svg>
