<svg width="41" height="40" viewBox="0 0 41 40" fill="none" xmlns="http://www.w3.org/2000/svg">
<path d="M4.66699 19.9998C4.66699 12.5359 4.66699 8.80399 6.98573 6.48524C9.30448 4.1665 13.0364 4.1665 20.5003 4.1665C27.9642 4.1665 31.6962 4.1665 34.015 6.48524C36.3337 8.80399 36.3337 12.5359 36.3337 19.9998C36.3337 27.4637 36.3337 31.1957 34.015 33.5145C31.6962 35.8332 27.9642 35.8332 20.5003 35.8332C13.0364 35.8332 9.30448 35.8332 6.98573 33.5145C4.66699 31.1957 4.66699 27.4637 4.66699 19.9998Z" stroke="#1C1C1C" strokeWidth="1.5"/>
<path d="M4.66699 15H36.3337" stroke="#1C1C1C" strokeWidth="1.5" strokeLinejoin="round"/>
<path d="M22.167 21.6665H28.8337" stroke="#1C1C1C" strokeWidth="1.5" strokeLinecap="round" strokeLinejoin="round"/>
<path d="M22.167 28.3335H25.5003" stroke="#1C1C1C" strokeWidth="1.5" strokeLinecap="round" strokeLinejoin="round"/>
<path d="M12.166 10H12.1806" stroke="#1C1C1C" strokeWidth="2" strokeLinecap="round" strokeLinejoin="round"/>
<path d="M18.833 10H18.8477" stroke="#1C1C1C" strokeWidth="2" strokeLinecap="round" strokeLinejoin="round"/>
<path d="M15.5 15V35.8333" stroke="#1C1C1C" strokeWidth="1.5" strokeLinecap="round" strokeLinejoin="round"/>
</svg>
