<svg width="41" height="40" viewBox="0 0 41 40" fill="none" xmlns="http://www.w3.org/2000/svg">
<path d="M18.0843 5C11.6637 5.01157 8.30148 5.1692 6.15278 7.31788C3.83398 9.6367 3.83398 13.3687 3.83398 20.8328C3.83398 28.297 3.83398 32.029 6.15278 34.3478C8.4716 36.6667 12.2037 36.6667 19.6678 36.6667C27.1318 36.6667 30.864 36.6667 33.1828 34.3478C35.3315 32.1992 35.4892 28.837 35.5007 22.4163" stroke="#1C1C1C" strokeWidth="1.5" strokeLinecap="round" strokeLinejoin="round"/>
<path d="M18.9268 21.6668C17.7211 6.44408 28.5046 2.12606 37.135 3.60748C37.4835 8.65243 35.015 10.5415 30.314 11.4139C31.2218 12.3624 32.8258 13.5561 32.6528 15.0481C32.5296 16.1099 31.8085 16.6309 30.3665 17.6728C27.206 19.9562 23.5448 21.396 18.9268 21.6668Z" stroke="#1C1C1C" strokeWidth="1.5" strokeLinecap="round" strokeLinejoin="round"/>
<path d="M15.5 28.3335C18.8333 19.1668 22.1007 16.0608 25.5 13.3335" stroke="#1C1C1C" strokeWidth="1.5" strokeLinecap="round" strokeLinejoin="round"/>
</svg>
