<svg width="287" height="84" viewBox="0 0 287 84" fill="none" xmlns="http://www.w3.org/2000/svg">
<g filter="url(#filter0_d_219_2272)">
<path d="M39.5013 74.7849V33.25C39.5013 30.7093 38.9273 28.6289 37.7794 27.0087C36.6314 25.3517 34.9094 24.5233 32.6135 24.5233C31.7248 24.5233 30.9471 24.6153 30.2806 24.7994C29.614 24.9835 28.7993 25.186 27.8365 25.407C25.6887 25.8857 23.689 25.9041 21.8374 25.4622C19.9859 25.0203 18.2825 24.0078 16.7271 22.4244C20.6895 20.1047 23.9853 18.5581 26.6145 17.7849C29.2807 16.9748 31.6137 16.5698 33.6134 16.5698C36.5758 16.5698 39.3162 17.1037 41.8343 18.1715C44.3524 19.2393 46.3706 21.062 47.8889 23.6395C49.4071 26.2171 50.1663 29.7888 50.1663 34.3546V74.7849H39.5013ZM5.6664 74.7849V31.593C5.6664 29.531 5.53679 27.3401 5.27758 25.0204C5.05539 22.7006 4.62953 20.2519 4 17.6744H11.9987C13.7762 19.6628 14.9427 21.6328 15.4982 23.5843C16.0536 25.5359 16.3314 27.6163 16.3314 29.8256V74.7849H5.6664Z" fill="black"/>
<path d="M91.0157 75.8895C86.0535 75.8895 81.5357 74.7481 77.4623 72.4651C73.4259 70.1822 70.2042 66.8314 67.7972 62.4128C65.4272 57.9942 64.2422 52.5814 64.2422 46.1744C64.2422 41.1298 65.0013 36.7481 66.5196 33.0291C68.0749 29.3101 70.1301 26.2355 72.6853 23.8052C75.2775 21.375 78.1659 19.5707 81.3506 18.3924C84.5353 17.1773 87.757 16.5698 91.0157 16.5698C96.6815 16.5698 101.514 17.8953 105.513 20.5465C109.513 23.1609 112.549 26.7141 114.623 31.2064C116.734 35.6618 117.789 40.6512 117.789 46.1744C117.789 50.9612 117.067 55.2141 115.623 58.9331C114.216 62.6153 112.272 65.7267 109.79 68.2674C107.309 70.7713 104.458 72.6676 101.236 73.9564C98.0146 75.2452 94.6077 75.8895 91.0157 75.8895ZM91.0157 67.9361C94.6077 67.9361 97.5702 66.9419 99.9032 64.9535C102.236 62.9651 103.958 60.3324 105.069 57.0552C106.217 53.7413 106.791 50.1143 106.791 46.1744C106.791 41.2403 106.05 37.1715 104.569 33.968C103.125 30.7645 101.199 28.3895 98.7923 26.843C96.4223 25.2965 93.8301 24.5233 91.0157 24.5233C88.2013 24.5233 85.5906 25.2965 83.1836 26.843C80.8136 28.3895 78.888 30.7645 77.4068 33.968C75.9625 37.1715 75.2404 41.2403 75.2404 46.1744C75.2404 52.5814 76.6106 57.8101 79.3509 61.8605C82.0912 65.9109 85.9795 67.9361 91.0157 67.9361Z" fill="black"/>
<path d="M152.829 76C146.793 76 142.145 74.03 138.887 70.0901C135.665 66.1502 134.054 60.6822 134.054 53.686V25.2965H123.833V20.3256L134.054 17.6744V3.09302L143.83 0V54.9012C143.83 58.6938 144.645 61.8789 146.274 64.4564C147.941 66.9971 150.126 68.2674 152.829 68.2674C154.273 68.2674 155.662 68.1386 156.995 67.8808C158.365 67.6231 160.013 67.1996 161.938 66.6105L164.383 73.5698C161.568 74.4903 159.383 75.1163 157.828 75.4477C156.273 75.8159 154.606 76 152.829 76ZM155.426 25.2965C153.685 25.2965 152.204 24.9651 150.982 24.3023C149.797 23.6027 148.797 22.6822 147.982 21.5407C147.205 20.3624 146.575 19.0736 146.094 17.6744H161.758V25.2965H155.426Z" fill="black"/>
<path d="M203.13 75.8895C199.056 75.8895 195.353 75.1347 192.021 73.625C188.725 72.1153 185.892 70.0165 183.522 67.3285C181.189 64.6037 179.393 61.4186 178.134 57.7733C176.875 54.0911 176.245 50.0775 176.245 45.7326C176.245 39.7674 177.338 34.6124 179.522 30.2674C181.744 25.8857 184.892 22.5165 188.965 20.1599C193.039 17.7665 197.871 16.5698 203.463 16.5698C207.277 16.5698 210.647 17.4167 213.573 19.1105C216.498 20.7674 218.85 23.0504 220.627 25.9593C222.442 28.8314 223.553 32.1085 223.96 35.7907C224.404 39.436 224.015 43.2287 222.793 47.1686H190.576C191.354 45.0698 192.446 43.3207 193.854 41.9215C195.298 40.4855 197.353 39.7674 200.019 39.7674H214.128C214.461 36.9322 214.128 34.3731 213.128 32.0901C212.165 29.7703 210.721 27.9293 208.796 26.5669C206.907 25.2045 204.759 24.5233 202.352 24.5233C199.242 24.5233 196.501 25.3517 194.131 27.0087C191.761 28.6657 189.91 31.0959 188.577 34.2994C187.243 37.4661 186.577 41.314 186.577 45.843C186.577 50.2248 187.336 54.0727 188.854 57.3866C190.41 60.7006 192.52 63.2965 195.187 65.1744C197.853 67.0155 200.871 67.9361 204.241 67.9361C206.796 67.9361 209.221 67.6783 211.517 67.1628C213.813 66.6105 216.535 65.5426 219.683 63.9593L222.46 71.25C218.905 73.0543 215.461 74.2694 212.128 74.8953C208.796 75.5581 205.796 75.8895 203.13 75.8895Z" fill="black"/>
<path d="M271.446 74.7849C268.41 69.9612 265.355 65.1928 262.281 60.4796C259.207 55.7296 256.078 50.9612 252.894 46.1744L233.897 17.6744H245.561L257.449 37.4477L258.115 39.7674L258.893 37.4477L271.002 17.6744H281.889L263.003 45.7326L283 74.7849H271.446ZM232.897 74.7849L250.005 49.9302C251.005 51.1085 251.783 52.4525 252.338 53.9622C252.894 55.4351 253.097 56.9816 252.949 58.6017C252.838 60.1851 252.264 61.75 251.227 63.2965L243.673 74.7849H232.897Z" fill="black"/>
</g>
<defs>
<filter id="filter0_d_219_2272" x="0" y="0" width="287" height="84" filterUnits="userSpaceOnUse" color-interpolation-filters="sRGB">
<feFlood flood-opacity="0" result="BackgroundImageFix"/>
<feColorMatrix in="SourceAlpha" type="matrix" values="0 0 0 0 0 0 0 0 0 0 0 0 0 0 0 0 0 0 127 0" result="hardAlpha"/>
<feOffset dy="4"/>
<feGaussianBlur stdDeviation="2"/>
<feComposite in2="hardAlpha" operator="out"/>
<feColorMatrix type="matrix" values="0 0 0 0 0 0 0 0 0 0 0 0 0 0 0 0 0 0 0.25 0"/>
<feBlend mode="normal" in2="BackgroundImageFix" result="effect1_dropShadow_219_2272"/>
<feBlend mode="normal" in="SourceGraphic" in2="effect1_dropShadow_219_2272" result="shape"/>
</filter>
</defs>
</svg>
