<svg width="911" height="371" viewBox="0 0 911 371" fill="none" xmlns="http://www.w3.org/2000/svg">
<path d="M3.22034 0.551166C2.97245 0.429478 2.67285 0.531779 2.55117 0.779663L0.568137 4.81917C0.446448 5.06705 0.54875 5.36665 0.796634 5.48834C1.04452 5.61003 1.34412 5.50772 1.4658 5.25984L3.2285 1.66917L6.81917 3.43186C7.06705 3.55355 7.36665 3.45125 7.48834 3.20337C7.61003 2.95548 7.50772 2.65588 7.25984 2.5342L3.22034 0.551166ZM226.5 97L226.401 96.5099L226.5 97ZM769.5 349.5L769.405 349.991L769.5 349.5ZM876.969 177.501C876.694 177.518 876.484 177.755 876.501 178.031L876.779 182.522C876.796 182.798 877.033 183.008 877.308 182.99C877.584 182.973 877.794 182.736 877.777 182.461L877.53 178.468L881.522 178.221C881.798 178.204 882.008 177.967 881.99 177.692C881.973 177.416 881.736 177.206 881.461 177.223L876.969 177.501ZM2.52683 1.16157C2.84083 2.08117 3.15951 3.0163 3.4827 3.9624L4.42901 3.63914C4.10559 2.69235 3.78771 1.75956 3.47317 0.838428L2.52683 1.16157ZM5.43388 9.61899C6.07966 11.4646 6.7499 13.3465 7.45106 15.2572L8.38985 14.9128C7.69082 13.0078 7.02232 11.1308 6.37777 9.28872L5.43388 9.61899ZM9.5678 20.8492C10.2836 22.6786 11.0319 24.5272 11.818 26.3889L12.7392 25.9999C11.957 24.1472 11.212 22.3069 10.499 20.4848L9.5678 20.8492ZM14.2294 31.8652C15.0537 33.6587 15.917 35.4589 16.824 37.2608L17.7172 36.8111C16.8159 35.0206 15.9577 33.2311 15.1381 31.4476L14.2294 31.8652ZM19.6204 42.5573C20.5791 44.2881 21.5824 46.0158 22.6344 47.7357L23.4874 47.2139C22.4433 45.5069 21.4473 43.7916 20.4952 42.0728L19.6204 42.5573ZM25.8782 52.7758C26.9889 54.4157 28.1485 56.0442 29.3609 57.6571L30.1603 57.0563C28.9581 55.4569 27.808 53.8418 26.7062 52.2151L25.8782 52.7758ZM33.0876 62.3589C34.3556 63.8758 35.6756 65.3747 37.0508 66.8519L37.7827 66.1705C36.4199 64.7067 35.1117 63.2212 33.8549 61.7176L33.0876 62.3589ZM41.2499 71.1226C42.6715 72.4911 44.1464 73.8365 45.6776 75.1556L46.3302 74.3979C44.8132 73.0911 43.3519 71.7581 41.9435 70.4022L41.2499 71.1226ZM50.3228 78.9383C51.8856 80.1407 53.5017 81.3163 55.1735 82.4626L55.739 81.6379C54.0823 80.502 52.481 79.337 50.9326 78.1458L50.3228 78.9383ZM60.2175 85.7247C61.9012 86.7508 63.6366 87.7483 65.4259 88.7149L65.9012 87.835C64.1271 86.8767 62.4067 85.8878 60.7379 84.8708L60.2175 85.7247ZM70.7448 91.4183C72.5155 92.264 74.335 93.0808 76.2048 93.8668L76.5923 92.9449C74.737 92.165 72.9321 91.3548 71.1757 90.516L70.7448 91.4183ZM81.8035 96.0704C83.6428 96.7469 85.5274 97.3949 87.4587 98.0129L87.7635 97.0605C85.8456 96.4468 83.9745 95.8033 82.1487 95.1318L81.8035 96.0704ZM93.1747 99.7153C95.0778 100.241 97.0234 100.739 99.0125 101.208L99.242 100.235C97.265 99.7689 95.3317 99.2739 93.441 98.7515L93.1747 99.7153ZM104.833 102.472C106.755 102.854 108.716 103.21 110.716 103.539L110.879 102.552C108.889 102.225 106.939 101.871 105.028 101.491L104.833 102.472ZM116.669 104.423C118.599 104.679 120.564 104.911 122.564 105.117L122.667 104.123C120.676 103.917 118.721 103.686 116.801 103.431L116.669 104.423ZM128.597 105.657C130.529 105.803 132.491 105.927 134.486 106.028L134.536 105.029C132.55 104.929 130.596 104.805 128.673 104.66L128.597 105.657ZM140.547 106.26C142.482 106.31 144.445 106.34 146.437 106.349L146.442 105.349C144.456 105.34 142.5 105.311 140.573 105.26L140.547 106.26ZM152.503 106.309C154.439 106.276 156.401 106.223 158.391 106.151L158.354 105.151C156.371 105.224 154.415 105.276 152.486 105.309L152.503 106.309ZM164.422 105.873C166.368 105.765 168.339 105.639 170.335 105.493L170.262 104.496C168.272 104.641 166.307 104.767 164.366 104.874L164.422 105.873ZM176.306 105.008C178.271 104.832 180.26 104.639 182.272 104.427L182.168 103.432C180.16 103.644 178.177 103.837 176.217 104.012L176.306 105.008ZM188.165 103.762C190.151 103.523 192.16 103.267 194.192 102.993L194.058 102.002C192.031 102.275 190.027 102.531 188.045 102.769L188.165 103.762ZM200.013 102.17C201.966 101.88 203.94 101.575 205.934 101.254L205.775 100.267C203.785 100.587 201.815 100.892 199.866 101.18L200.013 102.17ZM211.873 100.26C213.789 99.9278 215.725 99.5806 217.679 99.2188L217.497 98.2355C215.546 98.5967 213.615 98.9431 211.702 99.2751L211.873 100.26ZM223.597 98.0887C224.593 97.8929 225.594 97.6934 226.599 97.4901L226.401 96.5099C225.397 96.7129 224.399 96.912 223.404 97.1075L223.597 98.0887ZM226.599 97.4901C227.59 97.2896 228.581 97.0889 229.57 96.8878L229.371 95.9079C228.382 96.1088 227.392 96.3095 226.401 96.5099L226.599 97.4901ZM235.493 95.678C237.463 95.2736 239.43 94.8682 241.392 94.4619L241.189 93.4826C239.228 93.8888 237.262 94.2942 235.292 94.6984L235.493 95.678ZM247.266 93.2404C249.246 92.8269 251.223 92.4126 253.194 91.9977L252.988 91.0191C251.017 91.4339 249.042 91.8481 247.062 92.2615L247.266 93.2404ZM259.1 90.7506C261.063 90.3344 263.023 89.9177 264.978 89.5007L264.769 88.5227C262.815 88.9396 260.856 89.3562 258.892 89.7723L259.1 90.7506ZM270.871 88.2401C272.847 87.8161 274.819 87.3919 276.785 86.9678L276.575 85.9903C274.608 86.4143 272.637 86.8384 270.661 87.2624L270.871 88.2401ZM282.67 85.6957C284.627 85.2717 286.579 84.8479 288.526 84.4245L288.314 83.4474C286.367 83.8707 284.415 84.2944 282.459 84.7183L282.67 85.6957ZM294.453 83.1333C296.424 82.7034 298.388 82.2741 300.348 81.8455L300.134 80.8686C298.175 81.2971 296.21 81.7264 294.24 82.1563L294.453 83.1333ZM306.209 80.5621C308.181 80.1298 310.148 79.6985 312.108 79.2683L311.894 78.2915C309.934 78.7217 307.967 79.153 305.995 79.5852L306.209 80.5621ZM318.015 77.972C319.978 77.5411 321.934 77.1116 323.885 76.6836L323.67 75.7068C321.72 76.1349 319.763 76.5644 317.8 76.9952L318.015 77.972ZM329.757 75.3956C331.737 74.9616 333.711 74.5293 335.677 74.0991L335.464 73.1222C333.497 73.5525 331.523 73.9848 329.543 74.4188L329.757 75.3956ZM341.558 72.8143C343.514 72.3875 345.464 71.9629 347.407 71.5406L347.194 70.5634C345.251 70.9858 343.301 71.4105 341.345 71.8373L341.558 72.8143ZM353.343 70.2533C355.314 69.8268 357.278 69.403 359.235 68.9822L359.025 68.0045C357.068 68.4255 355.103 68.8494 353.131 69.2759L353.343 70.2533ZM365.082 67.7285C367.069 67.304 369.048 66.8827 371.019 66.4649L370.812 65.4866C368.84 65.9045 366.861 66.3259 364.873 66.7506L365.082 67.7285ZM376.923 65.219C378.883 64.8074 380.835 64.3995 382.778 63.9957L382.574 63.0166C380.631 63.4206 378.678 63.8286 376.718 64.2403L376.923 65.219ZM388.716 62.7688C390.697 62.362 392.669 61.9596 394.631 61.562L394.433 60.5819C392.469 60.9797 390.496 61.3822 388.515 61.7892L388.716 62.7688ZM400.492 60.3836C402.485 59.986 404.468 59.5935 406.442 59.2066L406.249 58.2253C404.275 58.6125 402.29 59.0051 400.296 59.403L400.492 60.3836ZM412.366 58.0559C414.331 57.678 416.286 57.306 418.23 56.9401L418.045 55.9574C416.099 56.3235 414.144 56.6958 412.178 57.0739L412.366 58.0559ZM424.206 55.829C426.194 55.464 428.17 55.1059 430.135 54.7549L429.96 53.7705C427.993 54.1218 426.015 54.4802 424.025 54.8454L424.206 55.829ZM436.012 53.7209C438.026 53.3721 440.027 53.0314 442.016 52.699L441.851 51.7126C439.86 52.0454 437.857 52.3864 435.842 52.7355L436.012 53.7209ZM447.942 51.7272C449.933 51.4073 451.911 51.0964 453.875 50.7948L453.723 49.8064C451.757 50.1084 449.777 50.4196 447.784 50.7399L447.942 51.7272ZM459.874 49.8968C461.859 49.6075 463.83 49.3284 465.786 49.0598L465.65 48.069C463.691 48.338 461.717 48.6176 459.729 48.9073L459.874 49.8968ZM471.796 48.2621C473.805 48.005 475.798 47.7598 477.774 47.527L477.657 46.5339C475.678 46.7671 473.682 47.0127 471.67 47.2702L471.796 48.2621ZM483.72 46.8588C485.753 46.6417 487.767 46.4386 489.764 46.25L489.67 45.2544C487.669 45.4435 485.65 45.647 483.613 45.8645L483.72 46.8588ZM495.697 45.728C497.739 45.5621 499.76 45.4124 501.761 45.2795L501.694 44.2817C499.689 44.4149 497.662 44.565 495.616 44.7313L495.697 45.728ZM507.742 44.9299C509.774 44.8278 511.783 44.7445 513.769 44.6804L513.737 43.6809C511.745 43.7452 509.729 43.8288 507.692 43.9312L507.742 44.9299ZM519.787 44.5454C521.813 44.5204 523.814 44.5173 525.789 44.5368L525.799 43.5368C523.816 43.5173 521.808 43.5204 519.775 43.5454L519.787 44.5454ZM531.822 44.6698C533.846 44.7401 535.84 44.8362 537.805 44.959L537.867 43.9609C535.893 43.8375 533.889 43.741 531.857 43.6704L531.822 44.6698ZM543.819 45.4278C545.839 45.6179 547.826 45.8391 549.778 46.0923L549.907 45.1006C547.943 44.8458 545.944 44.6234 543.912 44.4322L543.819 45.4278ZM555.718 46.9814C557.728 47.3242 559.697 47.7047 561.625 48.1243L561.838 47.1472C559.895 46.7243 557.911 46.3408 555.887 45.9956L555.718 46.9814ZM567.413 49.5362C569.389 50.0731 571.317 50.6562 573.195 51.2869L573.513 50.3389C571.616 49.7017 569.669 49.113 567.675 48.5712L567.413 49.5362ZM578.78 53.3637C580.657 54.1341 582.479 54.9593 584.244 55.8411L584.691 54.9465C582.903 54.0533 581.059 53.2179 579.159 52.4386L578.78 53.3637ZM589.488 58.7311C591.202 59.7707 592.854 60.8735 594.442 62.0414L595.034 61.2358C593.422 60.0498 591.745 58.9306 590.007 57.8761L589.488 58.7311ZM599.09 65.8087C600.572 67.1329 601.989 68.5268 603.338 69.9923L604.073 69.3151C602.702 67.8253 601.263 66.4086 599.756 65.0628L599.09 65.8087ZM607.163 74.5833C608.349 76.1576 609.47 77.8027 610.525 79.5207L611.377 78.9977C610.306 77.2529 609.168 75.5815 607.962 73.9816L607.163 74.5833ZM613.403 84.7261C614.281 86.4938 615.097 88.3292 615.852 90.2341L616.782 89.8657C616.017 87.9356 615.189 86.0747 614.299 84.2814L613.403 84.7261ZM617.828 95.8307C618.412 97.6973 618.942 99.6236 619.419 101.611L620.392 101.378C619.909 99.3692 619.373 97.4212 618.783 95.5325L617.828 95.8307ZM620.642 107.491C620.981 109.405 621.276 111.371 621.525 113.389L622.518 113.267C622.266 111.232 621.969 109.249 621.626 107.317L620.642 107.491ZM622.121 119.401C622.268 121.34 622.376 123.323 622.446 125.352L623.445 125.318C623.375 123.276 623.266 121.278 623.118 119.325L622.121 119.401ZM622.537 131.379C622.534 132.405 622.522 133.442 622.5 134.49L623.5 134.51C623.522 133.457 623.534 132.414 623.537 131.382L622.537 131.379ZM622.5 134.49C622.478 135.552 622.428 136.597 622.35 137.625L623.347 137.701C623.426 136.654 623.478 135.591 623.5 134.51L622.5 134.49ZM621.552 143.59C621.166 145.568 620.667 147.477 620.059 149.319L621.008 149.633C621.63 147.75 622.14 145.8 622.533 143.781L621.552 143.59ZM617.796 154.881C616.924 156.667 615.935 158.384 614.836 160.033L615.668 160.588C616.792 158.902 617.802 157.147 618.695 155.32L617.796 154.881ZM611.198 164.796C609.908 166.282 608.515 167.707 607.024 169.072L607.699 169.809C609.217 168.42 610.637 166.968 611.954 165.451L611.198 164.796ZM602.397 172.89C600.817 174.069 599.153 175.198 597.409 176.278L597.936 177.128C599.703 176.034 601.39 174.889 602.995 173.692L602.397 172.89ZM592.214 179.233C590.44 180.161 588.598 181.047 586.693 181.894L587.099 182.808C589.023 181.953 590.883 181.057 592.678 180.119L592.214 179.233ZM581.224 184.151C579.347 184.871 577.418 185.557 575.439 186.212L575.753 187.161C577.746 186.502 579.69 185.81 581.582 185.085L581.224 184.151ZM569.73 187.975C567.829 188.523 565.889 189.045 563.909 189.543L564.153 190.513C566.143 190.012 568.095 189.487 570.007 188.936L569.73 187.975ZM557.894 190.956C555.992 191.373 554.058 191.77 552.095 192.147L552.284 193.129C554.255 192.75 556.197 192.352 558.108 191.933L557.894 190.956ZM546.119 193.222C544.125 193.557 542.103 193.875 540.055 194.175L540.2 195.164C542.254 194.863 544.283 194.545 546.285 194.208L546.119 193.222ZM534.155 194.983C532.166 195.237 530.155 195.477 528.124 195.702L528.234 196.696C530.271 196.47 532.287 196.23 534.282 195.975L534.155 194.983ZM522.013 196.332C520.049 196.52 518.068 196.695 516.07 196.859L516.152 197.856C518.154 197.692 520.139 197.516 522.108 197.328L522.013 196.332ZM510.028 197.318C507.999 197.459 505.954 197.59 503.895 197.71L503.953 198.708C506.016 198.588 508.065 198.457 510.098 198.315L510.028 197.318ZM497.911 198.029C495.911 198.126 493.899 198.214 491.877 198.293L491.916 199.292C493.942 199.213 495.956 199.125 497.959 199.028L497.911 198.029ZM485.776 198.506C483.765 198.568 481.745 198.622 479.716 198.669L479.739 199.668C481.77 199.622 483.793 199.567 485.806 199.505L485.776 198.506ZM473.69 198.787C471.674 198.82 469.65 198.846 467.618 198.866L467.628 199.866C469.661 199.846 471.688 199.82 473.707 199.787L473.69 198.787ZM461.511 198.909C459.509 198.917 457.501 198.92 455.487 198.918L455.486 199.918C457.501 199.92 459.511 199.917 461.516 199.909L461.511 198.909ZM449.433 198.898C447.41 198.887 445.383 198.871 443.353 198.852L443.343 199.852C445.375 199.871 447.403 199.887 449.427 199.898L449.433 198.898ZM437.285 198.781C435.27 198.754 433.253 198.724 431.234 198.69L431.217 199.69C433.237 199.724 435.256 199.754 437.272 199.781L437.285 198.781ZM425.172 198.581C423.15 198.542 421.127 198.5 419.104 198.456L419.082 199.455C421.106 199.5 423.129 199.541 425.152 199.581L425.172 198.581ZM413.037 198.317C411.015 198.269 408.994 198.22 406.975 198.168L406.949 199.168C408.969 199.219 410.991 199.269 413.013 199.317L413.037 198.317ZM400.92 198.011C398.898 197.958 396.877 197.903 394.86 197.848L394.832 198.848C396.85 198.903 398.871 198.957 400.894 199.011L400.92 198.011ZM388.777 197.681C386.754 197.626 384.734 197.57 382.718 197.514L382.691 198.514C384.706 198.569 386.726 198.625 388.75 198.681L388.777 197.681ZM376.687 197.349C374.65 197.294 372.619 197.24 370.594 197.187L370.568 198.187C372.592 198.24 374.623 198.294 376.66 198.349L376.687 197.349ZM364.512 197.032C362.492 196.982 360.479 196.934 358.475 196.888L358.452 197.888C360.456 197.934 362.468 197.982 364.487 198.032L364.512 197.032ZM352.432 196.757C350.381 196.715 348.341 196.676 346.311 196.64L346.293 197.64C348.322 197.676 350.362 197.715 352.411 197.757L352.432 196.757ZM340.254 196.544C338.246 196.516 336.25 196.492 334.266 196.472L334.256 197.472C336.238 197.492 338.233 197.516 340.24 197.544L340.254 196.544ZM328.116 196.426C326.073 196.416 324.045 196.411 322.032 196.413L322.032 197.413C324.043 197.411 326.07 197.416 328.112 197.426L328.116 196.426ZM316.042 196.436C313.983 196.45 311.943 196.472 309.923 196.502L309.937 197.502C311.955 197.472 313.993 197.45 316.049 197.436L316.042 196.436ZM303.812 196.618C301.797 196.666 299.802 196.722 297.831 196.788L297.864 197.787C299.832 197.721 301.823 197.665 303.836 197.618L303.812 196.618ZM291.718 197.027C289.653 197.12 287.615 197.225 285.606 197.342L285.665 198.341C287.669 198.223 289.702 198.118 291.763 198.026L291.718 197.027ZM279.669 197.735C277.58 197.889 275.526 198.059 273.51 198.246L273.602 199.242C275.612 199.056 277.66 198.886 279.743 198.732L279.669 197.735ZM267.463 198.871C265.448 199.102 263.476 199.353 261.548 199.624L261.687 200.614C263.606 200.344 265.57 200.095 267.577 199.865L267.463 198.871ZM255.393 200.587C253.396 200.933 251.455 201.306 249.574 201.706L249.782 202.684C251.65 202.287 253.578 201.916 255.564 201.572L255.393 200.587ZM243.501 203.152C241.514 203.68 239.606 204.246 237.782 204.854L238.098 205.802C239.9 205.202 241.788 204.641 243.758 204.118L243.501 203.152ZM231.957 207.061C230.066 207.877 228.294 208.751 226.649 209.689L227.144 210.558C228.754 209.64 230.492 208.782 232.353 207.979L231.957 207.061ZM221.443 213.216C219.8 214.551 218.358 215.988 217.131 217.536L217.915 218.157C219.091 216.673 220.481 215.286 222.073 213.993L221.443 213.216ZM213.991 222.799C213.203 224.661 212.669 226.646 212.402 228.758L213.394 228.884C213.65 226.86 214.161 224.964 214.912 223.188L213.991 222.799ZM212.336 234.777C212.523 236.753 212.907 238.822 213.494 240.988L214.459 240.726C213.885 238.609 213.513 236.596 213.332 234.683L212.336 234.777ZM215.36 246.538C216.104 248.409 216.982 250.345 217.999 252.349L218.891 251.896C217.886 249.917 217.021 248.008 216.289 246.169L215.36 246.538ZM220.769 257.392C221.785 259.12 222.897 260.894 224.105 262.717L224.939 262.164C223.74 260.355 222.637 258.596 221.63 256.885L220.769 257.392ZM227.531 267.654C228.646 269.194 229.825 270.767 231.07 272.373L231.86 271.76C230.622 270.163 229.449 268.599 228.341 267.067L227.531 267.654ZM235.002 277.289C235.691 278.125 236.396 278.97 237.118 279.823L237.882 279.177C237.162 278.327 236.46 277.486 235.774 276.653L235.002 277.289ZM237.118 279.823C237.774 280.598 238.432 281.366 239.093 282.128L239.848 281.473C239.19 280.714 238.535 279.949 237.882 279.177L237.118 279.823ZM243.083 286.629C244.422 288.105 245.77 289.557 247.127 290.986L247.852 290.297C246.5 288.874 245.157 287.428 243.823 285.957L243.083 286.629ZM251.237 295.212C252.664 296.644 254.1 298.052 255.545 299.435L256.236 298.713C254.797 297.335 253.367 295.933 251.946 294.506L251.237 295.212ZM259.908 303.51C261.371 304.844 262.844 306.153 264.325 307.438L264.981 306.683C263.505 305.403 262.039 304.099 260.582 302.771L259.908 303.51ZM268.902 311.31C270.447 312.585 272.001 313.834 273.564 315.059L274.181 314.272C272.624 313.052 271.077 311.808 269.538 310.539L268.902 311.31ZM278.28 318.659C279.883 319.85 281.494 321.017 283.114 322.159L283.69 321.342C282.077 320.205 280.473 319.043 278.877 317.857L278.28 318.659ZM288.049 325.546C289.703 326.65 291.366 327.729 293.037 328.785L293.571 327.939C291.907 326.888 290.252 325.813 288.605 324.714L288.049 325.546ZM298.113 331.902C299.83 332.926 301.556 333.926 303.29 334.903L303.78 334.031C302.054 333.059 300.336 332.063 298.626 331.043L298.113 331.902ZM308.515 337.759C310.272 338.691 312.037 339.6 313.81 340.485L314.257 339.59C312.491 338.709 310.733 337.804 308.984 336.876L308.515 337.759ZM319.19 343.089C320.991 343.934 322.8 344.756 324.616 345.555L325.019 344.639C323.21 343.844 321.409 343.025 319.615 342.184L319.19 343.089ZM330.098 347.888C331.94 348.647 333.789 349.383 335.645 350.098L336.004 349.164C334.155 348.453 332.313 347.72 330.479 346.964L330.098 347.888ZM341.234 352.175C343.105 352.846 344.983 353.496 346.867 354.125L347.183 353.176C345.306 352.55 343.436 351.902 341.572 351.234L341.234 352.175ZM352.546 355.951C354.445 356.539 356.351 357.106 358.262 357.653L358.537 356.692C356.633 356.146 354.734 355.581 352.842 354.995L352.546 355.951ZM364.011 359.235C365.932 359.742 367.858 360.229 369.79 360.698L370.025 359.726C368.1 359.259 366.181 358.773 364.267 358.268L364.011 359.235ZM375.6 362.047C377.54 362.477 379.485 362.889 381.435 363.283L381.634 362.303C379.69 361.91 377.75 361.5 375.816 361.071L375.6 362.047ZM387.285 364.409C389.239 364.767 391.198 365.107 393.162 365.43L393.324 364.444C391.367 364.121 389.413 363.782 387.465 363.425L387.285 364.409ZM399.057 366.349C401.019 366.638 402.985 366.91 404.955 367.166L405.084 366.175C403.12 365.919 401.159 365.647 399.203 365.36L399.057 366.349ZM410.875 367.889C412.85 368.114 414.828 368.324 416.81 368.519L416.908 367.524C414.931 367.329 412.958 367.12 410.988 366.895L410.875 367.889ZM422.737 369.058C424.716 369.223 426.698 369.374 428.683 369.512L428.752 368.514C426.772 368.377 424.795 368.226 422.821 368.061L422.737 369.058ZM434.64 369.883C436.619 369.993 438.601 370.089 440.584 370.173L440.627 369.174C438.647 369.09 436.67 368.994 434.696 368.884L434.64 369.883ZM446.541 370.388C448.529 370.448 450.518 370.495 452.509 370.53L452.526 369.53C450.54 369.495 448.554 369.448 446.571 369.389L446.541 370.388ZM458.46 370.601C460.445 370.614 462.431 370.615 464.419 370.606L464.414 369.606C462.43 369.615 460.447 369.614 458.466 369.601L458.46 370.601ZM470.385 370.547C472.369 370.516 474.353 370.476 476.338 370.426L476.313 369.427C474.331 369.476 472.35 369.517 470.37 369.547L470.385 370.547ZM482.293 370.248C484.279 370.179 486.265 370.101 488.251 370.014L488.208 369.015C486.224 369.102 484.241 369.18 482.259 369.249L482.293 370.248ZM494.201 369.728C496.184 369.625 498.167 369.513 500.15 369.393L500.089 368.394C498.109 368.514 496.129 368.626 494.149 368.73L494.201 369.728ZM506.096 369.01C508.078 368.875 510.059 368.732 512.04 368.583L511.965 367.586C509.986 367.735 508.007 367.877 506.028 368.012L506.096 369.01ZM517.98 368.114C519.958 367.952 521.936 367.782 523.913 367.607L523.825 366.611C521.85 366.786 519.874 366.955 517.898 367.118L517.98 368.114ZM529.848 367.063C531.827 366.875 533.804 366.682 535.78 366.484L535.68 365.489C533.706 365.687 531.731 365.88 529.754 366.067L529.848 367.063ZM541.701 365.875C543.677 365.666 545.652 365.453 547.625 365.236L547.515 364.242C545.544 364.459 543.571 364.672 541.596 364.88L541.701 365.875ZM553.55 364.569C555.522 364.343 557.492 364.114 559.46 363.88L559.342 362.887C557.376 363.12 555.407 363.35 553.436 363.576L553.55 364.569ZM565.373 363.169C567.35 362.928 569.323 362.684 571.294 362.437L571.169 361.445C569.2 361.691 567.228 361.935 565.252 362.176L565.373 363.169ZM577.195 361.69C579.166 361.438 581.134 361.184 583.098 360.929L582.969 359.937C581.005 360.192 579.038 360.446 577.068 360.698L577.195 361.69ZM589.017 360.153C590.986 359.893 592.951 359.632 594.911 359.371L594.779 358.38C592.819 358.641 590.855 358.902 588.886 359.161L589.017 360.153ZM600.807 358.582C602.786 358.316 604.759 358.051 606.727 357.785L606.594 356.794C604.626 357.06 602.652 357.325 600.674 357.591L600.807 358.582ZM612.617 356.992C614.587 356.726 616.552 356.462 618.511 356.199L618.378 355.208C616.419 355.471 614.454 355.735 612.484 356.001L612.617 356.992ZM624.435 355.407C626.403 355.145 628.365 354.884 630.322 354.627L630.191 353.635C628.234 353.893 626.271 354.153 624.303 354.416L624.435 355.407ZM636.221 353.856C638.204 353.599 640.18 353.345 642.148 353.096L642.022 352.103C640.053 352.353 638.076 352.607 636.092 352.864L636.221 353.856ZM648.033 352.358C650.012 352.113 651.984 351.873 653.948 351.638L653.829 350.645C651.864 350.88 649.891 351.121 647.91 351.366L648.033 352.358ZM659.878 350.941C661.847 350.715 663.807 350.494 665.758 350.279L665.649 349.285C663.696 349.5 661.734 349.721 659.764 349.948L659.878 350.941ZM671.701 349.644C673.688 349.438 675.664 349.239 677.631 349.049L677.535 348.053C675.566 348.244 673.587 348.443 671.598 348.649L671.701 349.644ZM683.501 348.502C685.507 348.323 687.503 348.153 689.488 347.994L689.408 346.997C687.42 347.157 685.421 347.327 683.412 347.506L683.501 348.502ZM695.408 347.546C697.393 347.405 699.366 347.276 701.326 347.158L701.266 346.16C699.302 346.278 697.326 346.407 695.337 346.548L695.408 347.546ZM707.303 346.835C709.281 346.741 711.246 346.659 713.198 346.591L713.163 345.592C711.207 345.66 709.238 345.742 707.255 345.836L707.303 346.835ZM719.182 346.428C721.178 346.389 723.159 346.365 725.123 346.359L725.12 345.359C723.149 345.365 721.163 345.389 719.162 345.428L719.182 346.428ZM731.043 346.392C733.055 346.422 735.049 346.471 737.024 346.54L737.059 345.541C735.077 345.471 733.076 345.422 731.057 345.392L731.043 346.392ZM742.895 346.81C744.913 346.926 746.91 347.064 748.886 347.227L748.968 346.231C746.984 346.067 744.978 345.928 742.952 345.812L742.895 346.81ZM754.764 347.792C756.76 348.012 758.733 348.258 760.681 348.534L760.821 347.543C758.862 347.267 756.879 347.019 754.874 346.798L754.764 347.792ZM766.535 349.46C767.498 349.629 768.454 349.806 769.405 349.991L769.595 349.009C768.639 348.823 767.677 348.645 766.708 348.475L766.535 349.46ZM769.405 349.991C770.358 350.176 771.322 350.342 772.295 350.487L772.443 349.498C771.484 349.355 770.535 349.192 769.595 349.009L769.405 349.991ZM778.18 351.118C780.125 351.249 782.1 351.308 784.101 351.297L784.096 350.297C782.118 350.308 780.167 350.25 778.247 350.121L778.18 351.118ZM789.995 351.071C791.931 350.935 793.886 350.738 795.856 350.483L795.727 349.492C793.776 349.744 791.841 349.939 789.925 350.074L789.995 351.071ZM801.686 349.567C803.605 349.213 805.535 348.806 807.472 348.349L807.242 347.376C805.321 347.829 803.407 348.232 801.504 348.583L801.686 349.567ZM813.175 346.862C815.047 346.327 816.923 345.748 818.799 345.124L818.483 344.175C816.621 344.794 814.759 345.37 812.9 345.9L813.175 346.862ZM824.358 343.147C826.188 342.454 828.016 341.721 829.837 340.948L829.446 340.027C827.637 340.795 825.822 341.524 824.004 342.212L824.358 343.147ZM835.207 338.547C836.979 337.714 838.743 336.845 840.495 335.941L840.036 335.053C838.295 335.951 836.543 336.815 834.782 337.642L835.207 338.547ZM845.687 333.141C847.394 332.18 849.087 331.186 850.764 330.16L850.242 329.307C848.575 330.327 846.893 331.315 845.197 332.27L845.687 333.141ZM855.735 326.994C857.372 325.91 858.991 324.795 860.588 323.651L860.005 322.838C858.418 323.975 856.81 325.083 855.183 326.161L855.735 326.994ZM865.314 320.131C866.87 318.926 868.402 317.694 869.907 316.435L869.266 315.668C867.77 316.919 866.248 318.143 864.702 319.34L865.314 320.131ZM874.35 312.569C875.811 311.246 877.243 309.897 878.642 308.523L877.941 307.81C876.552 309.174 875.13 310.514 873.678 311.828L874.35 312.569ZM882.763 304.303C884.109 302.864 885.419 301.4 886.69 299.915L885.931 299.265C884.669 300.739 883.369 302.191 882.033 303.62L882.763 304.303ZM890.42 295.343C891.634 293.782 892.804 292.198 893.927 290.593L893.108 290.02C891.995 291.61 890.835 293.181 889.631 294.73L890.42 295.343ZM897.18 285.676C898.225 284 899.219 282.304 900.157 280.589L899.28 280.109C898.351 281.807 897.367 283.487 896.331 285.147L897.18 285.676ZM902.839 275.319C903.681 273.529 904.462 271.722 905.18 269.898L904.249 269.532C903.54 271.335 902.767 273.123 901.934 274.893L902.839 275.319ZM907.15 264.336C907.743 262.451 908.267 260.551 908.718 258.638L907.745 258.409C907.3 260.298 906.782 262.174 906.196 264.035L907.15 264.336ZM909.849 252.836C910.149 250.891 910.372 248.933 910.514 246.966L909.516 246.894C909.377 248.834 909.157 250.764 908.861 252.684L909.849 252.836ZM910.69 241.053C910.666 239.092 910.559 237.123 910.365 235.148L909.37 235.246C909.561 237.192 909.666 239.133 909.69 241.066L910.69 241.053ZM909.54 229.308C909.186 227.391 908.748 225.47 908.224 223.546L907.259 223.809C907.776 225.706 908.208 227.6 908.557 229.489L909.54 229.308ZM906.426 217.878C905.77 216.067 905.035 214.256 904.218 212.445L903.306 212.856C904.113 214.644 904.838 216.432 905.485 218.219L906.426 217.878ZM901.596 207.157C900.669 205.444 899.667 203.732 898.587 202.023L897.741 202.557C898.81 204.247 899.801 205.94 900.717 207.633L901.596 207.157ZM895.316 197.187C894.179 195.612 892.975 194.04 891.701 192.473L890.925 193.103C892.187 194.657 893.38 196.213 894.505 197.772L895.316 197.187ZM887.886 188.024C886.592 186.591 885.238 185.162 883.823 183.738L883.114 184.443C884.518 185.856 885.861 187.273 887.144 188.694L887.886 188.024ZM879.581 179.656C878.846 178.978 878.096 178.301 877.331 177.625L876.669 178.375C877.428 179.046 878.173 179.718 878.904 180.391L879.581 179.656Z" fill="#9D9D9D"/>
</svg>
