<svg width="41" height="40" viewBox="0 0 41 40" fill="none" xmlns="http://www.w3.org/2000/svg">
<path d="M13 8.24219H27.1667C28.5473 8.24219 29.6667 9.36147 29.6667 10.7422V13.2422" stroke="#1C1C1C" strokeWidth="1.5" strokeLinecap="round" strokeLinejoin="round"/>
<path d="M25.5 21.5757H15.5" stroke="#1C1C1C" stroke-width="1.5" strokeLinecap="round" strokeLinejoin="round"/>
<path d="M20.5 28.2422H15.5" stroke="#1C1C1C" stroke-width="1.5" strokeLinecap="round" strokeLinejoin="round"/>
<path d="M31.329 3.3335L11.0134 3.33353C10.1852 3.33353 9.338 3.45506 8.66849 3.94653C6.54562 5.50481 4.90963 8.98018 8.21338 12.1178C9.141 12.9988 10.4376 13.3182 11.7122 13.3182H30.9732C32.2957 13.3182 34.6673 13.5075 34.6673 17.5457V29.9688C34.6673 33.668 31.6845 36.6668 28.005 36.6668H12.9548C9.28208 36.6668 6.61097 34.0712 6.39997 30.119L6.34415 8.6108" stroke="#1C1C1C" strokeWidth="1.5" strokeLinecap="round"/>
</svg>
