<svg width="29" height="36" viewBox="0 0 29 36" fill="none" xmlns="http://www.w3.org/2000/svg">
<path d="M14.7136 35.9925C17.6755 35.9925 20.0766 33.3053 20.0766 29.9904C20.0766 26.6755 17.6755 23.9883 14.7136 23.9883C11.7517 23.9883 9.35059 26.6755 9.35059 29.9904C9.35059 33.3053 11.7517 35.9925 14.7136 35.9925Z" fill="#FF5A79"/>
<path d="M28.3369 5.86958C25.9236 -2.83347 15.9484 -0.492652 14.7149 4.12897C13.4815 -0.492652 3.50629 -2.83347 1.09295 5.86958C0.0203513 9.65091 1.68288 13.1922 4.52526 15.4129C8.33299 18.414 12.8379 18.414 14.7149 23.996C16.592 18.414 21.0433 18.414 24.9046 15.4129C27.747 13.1922 29.4095 9.65091 28.3369 5.86958Z" fill="#FF5A79"/>
</svg>
