<svg width="48" height="48" viewBox="0 0 48 48" fill="none" xmlns="http://www.w3.org/2000/svg">
<path d="M32.3562 15.3836L25.6694 26.8599C25.5073 27.1458 25.3047 27.4317 25.3047 27.7993C25.3047 28.5344 25.872 29.1062 26.9663 29.1062H29.9652C31.0594 29.1062 31.951 30.0456 31.951 31.1483V34.4564C31.951 35.5591 31.0594 36.4985 29.9652 36.4985H19.9957C13.39 36.4985 8 31.1074 8 24.4503C8 17.7932 13.39 12.3613 19.9957 12.3613H30.6136C31.7078 12.3613 32.5994 13.2598 32.5994 14.3625C32.5994 14.7301 32.5183 15.0977 32.3562 15.3836ZM25.8788 18.7189C26.2841 18.1063 26.1557 17.2827 25.5478 16.8743C25.1088 16.5748 24.6495 16.6088 23.7714 17.0513L15.396 21.2715C14.8894 21.5166 14.214 21.8024 14.0587 22.0407C13.6534 22.6533 13.8425 23.4701 14.6801 24.0351L18.6516 26.7238C19.4959 27.2956 20.2794 27.139 20.6847 26.5264L25.8788 18.7257V18.7189Z" fill="black" stroke="black" stroke-miterlimit="10"/>
<path d="M33.4246 14.0222L26.7378 25.4986C26.5757 25.7845 26.373 26.0704 26.373 26.438C26.373 27.1731 26.9404 27.7449 28.0346 27.7449H31.0335C32.1278 27.7449 33.0193 28.6842 33.0193 29.7869V33.0951C33.0193 34.1978 32.1278 35.1371 31.0335 35.1371H21.0641C14.4583 35.1371 9.06836 29.7461 9.06836 23.089C9.06836 16.4319 14.4583 11 21.0641 11H31.682C32.7762 11 33.6677 11.8985 33.6677 13.0012C33.6677 13.3688 33.5867 13.7364 33.4246 14.0222ZM26.9472 17.3576C27.3524 16.745 27.2241 15.9214 26.6162 15.5129C26.1772 15.2134 25.7179 15.2475 24.8398 15.6899L16.4644 19.9102C15.9578 20.1552 15.2824 20.4411 15.127 20.6794C14.7218 21.292 14.9109 22.1088 15.7484 22.6738L19.72 25.3625C20.5643 25.9343 21.3478 25.7777 21.7531 25.1651L26.9472 17.3644V17.3576Z" fill="#FF7262" stroke="black" stroke-miterlimit="10"/>
<path d="M38.3153 35.49C36.1269 35.49 34.3438 33.6522 34.3438 31.4468C34.3438 29.2413 36.1269 27.4443 38.3153 27.4443C40.5037 27.4443 42.3274 29.2413 42.3274 31.4468C42.3274 33.6522 40.5037 35.49 38.3153 35.49Z" fill="black" stroke="black" stroke-miterlimit="10"/>
<path d="M38.9882 34.8104C36.7998 34.8104 35.0166 32.9725 35.0166 30.7671C35.0166 28.5617 36.7998 26.7646 38.9882 26.7646C41.1766 26.7646 43.0003 28.5617 43.0003 30.7671C43.0003 32.9725 41.1766 34.8104 38.9882 34.8104Z" fill="#FF7262" stroke="black" stroke-miterlimit="10"/>
</svg>
