<svg width="33" height="22" viewBox="0 0 33 22" fill="none" xmlns="http://www.w3.org/2000/svg">
<path d="M25.8413 21.5789C24.7712 21.5922 23.7081 21.4035 22.7079 21.0231C21.8117 20.6746 21.0019 20.1355 20.3347 19.4431C19.6773 18.7356 19.1697 17.9026 18.8421 16.9941C18.4824 15.989 18.3043 14.928 18.316 13.8606C18.3085 12.8115 18.4917 11.7699 18.857 10.7865C19.1975 9.86952 19.7217 9.03156 20.3973 8.32422C21.0748 7.62563 21.8843 7.06844 22.7788 6.68493C23.7477 6.27507 24.7911 6.07121 25.843 6.08627C26.9735 6.06211 28.093 6.31104 29.1068 6.81192C30.0117 7.27604 30.7964 7.94391 31.3992 8.76291C32.0072 9.59955 32.4459 10.5468 32.6905 11.5517C32.9573 12.6199 33.0526 13.7239 32.9725 14.8221H22.3665C22.3243 15.8652 22.6818 16.8851 23.3659 17.6735C24.0846 18.304 25.0243 18.6232 25.9782 18.5608C26.7275 18.5783 27.4637 18.3634 28.0859 17.9457C28.5798 17.6442 28.959 17.186 29.1628 16.6444H32.7169C32.3141 18.1761 31.3874 19.5182 30.0979 20.4376C28.8216 21.2271 27.3415 21.6239 25.8413 21.5789ZM25.7276 9.13728C25.1734 9.1165 24.6224 9.22963 24.1212 9.46712C23.7294 9.66469 23.3816 9.93961 23.0987 10.2752C22.8499 10.5802 22.6658 10.9326 22.5578 11.3109C22.4626 11.6263 22.4011 11.9508 22.3747 12.279H28.9418C28.8945 11.4237 28.5685 10.6077 28.0133 9.95528C27.399 9.37542 26.5703 9.07873 25.7276 9.13728ZM9.84574 21.1962H0V0.902828H9.56537C10.4515 0.89506 11.336 0.980753 12.2041 1.15845C12.9394 1.302 13.6401 1.5865 14.2672 1.99625C14.8337 2.38947 15.2884 2.92308 15.5866 3.54485C15.916 4.2938 16.0736 5.10687 16.0484 5.92465C16.0842 6.8294 15.8444 7.72368 15.3607 8.48914C14.8314 9.2199 14.1162 9.79564 13.2893 10.1565C14.4129 10.4373 15.4006 11.1076 16.0764 12.0481C16.7043 13.0159 17.0219 14.1522 16.9868 15.3053C17.0107 16.2275 16.808 17.1415 16.3964 17.9671C16.0166 18.6993 15.4656 19.329 14.79 19.8027C14.0898 20.2898 13.3077 20.6474 12.4812 20.8582C11.6182 21.0848 10.7297 21.199 9.83749 21.1979L9.84574 21.1962ZM4.46934 12.1537V17.7445H9.23553C9.65675 17.7491 10.0772 17.7064 10.4889 17.6175C10.8659 17.5447 11.2247 17.3978 11.5444 17.1854C11.8524 16.9829 12.1024 16.7038 12.2701 16.3756C12.4645 15.964 12.5562 15.5111 12.5372 15.0563C12.6172 14.212 12.2901 13.3803 11.6566 12.8166C10.973 12.3461 10.1533 12.1143 9.32459 12.157L4.46934 12.1537ZM4.46934 4.3612V9.10264H8.99145C9.69098 9.13019 10.3806 8.93063 10.9573 8.53367C11.5009 8.08228 11.7872 7.39189 11.7225 6.68823C11.7365 6.28431 11.6503 5.8832 11.4718 5.52059C11.3106 5.22746 11.073 4.98351 10.7841 4.81474C10.48 4.63436 10.1441 4.514 9.79461 4.46016C9.41404 4.3888 9.02735 4.3551 8.64017 4.35956L4.46934 4.3612ZM29.7697 4.26885H21.5402V2.26507H29.7697V4.2672V4.26885Z" fill="black"/>
</svg>
