<svg width="32" height="32" viewBox="0 0 32 32" fill="none" xmlns="http://www.w3.org/2000/svg">
<path d="M9.62121 11.7977L5.22062 15.5L9.62121 19.2024C9.71117 19.2751 9.78587 19.3652 9.84093 19.4674C9.896 19.5696 9.93032 19.6819 9.94188 19.7976C9.95345 19.9134 9.94203 20.0303 9.9083 20.1416C9.87457 20.2528 9.8192 20.3562 9.74542 20.4455C9.67165 20.5349 9.58097 20.6086 9.47867 20.6621C9.37637 20.7157 9.26452 20.7482 9.14965 20.7576C9.03478 20.767 8.91921 20.7532 8.8097 20.7169C8.70018 20.6807 8.59893 20.6228 8.51185 20.5466L3.31175 16.1716C3.21417 16.0895 3.13567 15.9867 3.0818 15.8705C3.02792 15.7544 3 15.6277 3 15.4995C3 15.3712 3.02792 15.2445 3.0818 15.1284C3.13567 15.0122 3.21417 14.9095 3.31175 14.8274L8.51185 10.4524C8.68855 10.3038 8.91646 10.2323 9.14543 10.2534C9.3744 10.2745 9.58568 10.3866 9.73279 10.565C9.8799 10.7434 9.95079 10.9735 9.92986 11.2047C9.90894 11.4358 9.79791 11.6492 9.62121 11.7977ZM28.6883 14.8274L23.4881 10.4524C23.4007 10.3788 23.2997 10.3234 23.191 10.2893C23.0822 10.2551 22.9679 10.2429 22.8546 10.2534C22.7412 10.2639 22.631 10.2968 22.5302 10.3502C22.4294 10.4037 22.3401 10.4767 22.2672 10.565C22.1201 10.7434 22.0492 10.9735 22.0701 11.2047C22.0911 11.4358 22.2021 11.6492 22.3788 11.7977L26.7794 15.5L22.3788 19.2024C22.2888 19.2751 22.2141 19.3652 22.1591 19.4674C22.104 19.5696 22.0697 19.6819 22.0581 19.7976C22.0466 19.9134 22.058 20.0303 22.0917 20.1416C22.1254 20.2528 22.1808 20.3562 22.2546 20.4455C22.3283 20.5349 22.419 20.6086 22.5213 20.6621C22.6236 20.7157 22.7355 20.7482 22.8504 20.7576C22.9652 20.767 23.0808 20.7532 23.1903 20.7169C23.2998 20.6807 23.4011 20.6228 23.4881 20.5466L28.6883 16.1716C28.7858 16.0895 28.8643 15.9867 28.9182 15.8705C28.9721 15.7544 29 15.6277 29 15.4995C29 15.3712 28.9721 15.2445 28.9182 15.1284C28.8643 15.0122 28.7858 14.9095 28.6883 14.8274ZM19.7625 5.05253C19.6555 5.01331 19.5419 4.99576 19.4282 5.00086C19.3145 5.00597 19.2029 5.03364 19.0998 5.08229C18.9967 5.13094 18.9041 5.19962 18.8272 5.2844C18.7504 5.36919 18.6909 5.46842 18.6521 5.57643L11.7186 24.8264C11.6796 24.9345 11.6621 25.0493 11.667 25.1642C11.672 25.2791 11.6994 25.3919 11.7476 25.4961C11.7958 25.6004 11.8639 25.694 11.9479 25.7716C12.032 25.8492 12.1304 25.9094 12.2375 25.9486C12.3325 25.9827 12.4325 26.0001 12.5333 26C12.7112 26 12.8849 25.9447 13.0307 25.8416C13.1764 25.7384 13.2872 25.5925 13.3479 25.4236L20.2814 6.17362C20.3203 6.06561 20.3376 5.95093 20.3326 5.83613C20.3275 5.72134 20.3001 5.60867 20.2519 5.50457C20.2038 5.40046 20.1357 5.30696 20.0518 5.2294C19.9678 5.15184 19.8695 5.09174 19.7625 5.05253Z" fill="black"/>
</svg>
