<svg width="171" height="254" viewBox="0 0 171 254" fill="none" xmlns="http://www.w3.org/2000/svg">
<path d="M119.034 143.645C112.299 148.416 106.788 150.447 102.313 150.633C101.415 153.93 101.513 157.361 102.5 160.504C104.239 166.043 108.604 173.571 115.637 175.619C117.262 172.59 119.731 169.553 123.248 166.663C132.326 159.207 139.35 164.61 133.623 169.905C126.394 175.877 120.403 177.007 115.637 175.619C108.604 173.571 104.239 166.043 102.5 160.504C101.513 157.361 101.415 153.93 102.313 150.633C103.822 145.089 108.147 139.927 115.792 137.162C127.982 132.752 124.869 139.512 119.034 143.645Z" fill="#F5A38E"/>
<path d="M84.9932 129.381C85.9658 141.484 94.1355 161.282 119.034 143.645C124.869 139.512 127.982 132.752 115.792 137.162C103.602 141.571 99.8534 152.075 102.5 160.504C105.417 169.797 115.727 184.689 133.623 169.905C139.35 164.61 132.326 159.207 123.248 166.663C99.8201 185.908 122.924 211.727 131.677 197.786" stroke="#FFE959" strokeWidth="5"/>
<path d="M84.9932 129.381C85.9658 141.484 94.1355 161.282 119.034 143.645C124.869 139.512 127.982 132.752 115.792 137.162C103.602 141.571 99.8534 152.075 102.5 160.504C105.417 169.797 115.727 184.689 133.623 169.905C139.35 164.61 132.326 159.207 123.248 166.663C99.8201 185.908 122.924 211.727 131.677 197.786" stroke="black" strokeWidth="5"/>
<path d="M146.044 191.311C140.158 196.935 134.936 199.903 130.487 200.968C130.15 204.257 130.754 207.524 132.145 210.4C134.673 215.627 140.09 222.438 147.346 223.438C148.512 220.204 150.512 216.839 153.57 213.468C161.463 204.767 169.2 209.089 164.306 215.162C158.025 222.125 152.263 224.116 147.346 223.438C140.09 222.438 134.673 215.627 132.145 210.4C130.754 207.524 130.15 204.257 130.487 200.968C131.081 195.163 134.603 189.288 141.891 185.369C153.307 179.229 151.214 186.371 146.044 191.311Z" fill="#F5A38E"/>
<path d="M113.527 182.225C111.254 196.166 123.984 212.39 146.044 191.311C151.214 186.371 153.307 179.229 141.891 185.369C130.474 191.509 128.298 202.447 132.145 210.4C136.387 219.169 148.758 232.398 164.306 215.162C169.2 209.089 161.463 204.767 153.57 213.468C133.199 235.923 159.821 258.097 166.448 243.029" stroke="#FFE959" strokeWidth="5"/>
<path d="M113.527 182.225C111.254 196.166 123.984 212.39 146.044 191.311C151.214 186.371 153.307 179.229 141.891 185.369C130.474 191.509 128.298 202.447 132.145 210.4C136.387 219.169 148.758 232.398 164.306 215.162C169.2 209.089 161.463 204.767 153.57 213.468C133.199 235.923 159.821 258.097 166.448 243.029" stroke="black" strokeWidth="5"/>
<g filter="url(#filter0_d_303_2778)">
<path d="M2.85368 36.9857C-1.4874 20.3068 11.7066 8.02244 20.377 2.74795C22.1483 1.67039 24.3933 2.37256 25.4406 4.16196L41.8195 32.1478C42.8801 33.96 42.3589 36.2835 40.6178 37.4572C38.1546 39.1177 34.9211 41.2755 32.0312 43.1454C27.6221 45.9984 28.465 51.8987 29.4376 54.4923C35.5973 64.6504 48.5003 85.7448 50.8345 88.857C53.7523 92.7474 59.2636 97.6103 64.1266 96.9619C66.8313 96.6013 71.0507 94.026 74.3882 91.6545C76.3757 90.2423 79.1968 90.7277 80.4573 92.8147L96.4408 119.279C97.2874 120.681 97.2133 122.478 96.0671 123.648C89.4153 130.436 74.4308 137.663 55.3733 123.546C29.1134 104.094 9.0134 60.652 2.85368 36.9857Z" fill="#F5A38E"/>
<path d="M2.85368 36.9857C-1.4874 20.3068 11.7066 8.02244 20.377 2.74795C22.1483 1.67039 24.3933 2.37256 25.4406 4.16196L41.8195 32.1478C42.8801 33.96 42.3589 36.2835 40.6178 37.4572C38.1546 39.1177 34.9211 41.2755 32.0312 43.1454C27.6221 45.9984 28.465 51.8987 29.4376 54.4923C35.5973 64.6504 48.5003 85.7448 50.8345 88.857C53.7523 92.7474 59.2636 97.6103 64.1266 96.9619C66.8313 96.6013 71.0507 94.026 74.3882 91.6545C76.3757 90.2423 79.1968 90.7277 80.4573 92.8147L96.4408 119.279C97.2874 120.681 97.2133 122.478 96.0671 123.648C89.4153 130.436 74.4308 137.663 55.3733 123.546C29.1134 104.094 9.0134 60.652 2.85368 36.9857Z" stroke="black" strokeWidth="4"/>
</g>
<defs>
<filter id="filter0_d_303_2778" x="-0.000976562" y="0.232422" width="102.011" height="137.42" filterUnits="userSpaceOnUse" colorInterpolationFilters="sRGB">
<feFlood flood-opacity="0" result="BackgroundImageFix"/>
<feColorMatrix in="SourceAlpha" type="matrix" values="0 0 0 0 0 0 0 0 0 0 0 0 0 0 0 0 0 0 127 0" result="hardAlpha"/>
<feOffset dx="3" dy="4"/>
<feComposite in2="hardAlpha" operator="out"/>
<feColorMatrix type="matrix" values="0 0 0 0 0 0 0 0 0 0 0 0 0 0 0 0 0 0 1 0"/>
<feBlend mode="normal" in2="BackgroundImageFix" result="effect1_dropShadow_303_2778"/>
<feBlend mode="normal" in="SourceGraphic" in2="effect1_dropShadow_303_2778" result="shape"/>
</filter>
</defs>
</svg>
