<svg width="32" height="32" viewBox="0 0 32 32" fill="none" xmlns="http://www.w3.org/2000/svg">
<path d="M23.8 23.8489C25.0366 23.6688 25.9152 23.3206 26.5941 22.6473C28 21.2531 28 19.0089 28 14.5208C28 10.0327 28 7.78859 26.5941 6.39429C25.1883 5 22.9254 5 18.4 5H13.6C9.07451 5 6.81178 5 5.40588 6.39429C4 7.78859 4 10.0327 4 14.5208C4 19.0089 4 21.2531 5.40588 22.6473C6.3757 23.6092 7.75324 23.9075 10 24" stroke="black" stroke-width="2" stroke-linecap="round"/>
<path d="M22 12H10" stroke="black" stroke-width="2" stroke-linecap="round" stroke-linejoin="round"/>
<path d="M19 21C19 22.6568 17.6568 24 16 24C14.3432 24 13 22.6568 13 21C13 19.3432 14.3432 18 16 18C17.6568 18 19 19.3432 19 21Z" stroke="black" stroke-width="2"/>
<path d="M13 21C13 25.8791 15.0666 28.6447 16 30L17.8 26.4L19.9 27.6L22 28.8C21.1184 27.9466 20.207 25.2565 20.207 25.2565" stroke="black" stroke-width="2" stroke-linecap="round" stroke-linejoin="round"/>
</svg>
