<svg width="33" height="34" viewBox="0 0 33 34" fill="none" xmlns="http://www.w3.org/2000/svg">
<path d="M16.5 33.9023C7.3873 33.9023 0 26.515 0 17.4023C0 8.28964 7.3873 0.902344 16.5 0.902344C25.6126 0.902344 33 8.28964 33 17.4023C32.9899 26.5108 25.6085 33.8923 16.5 33.9023ZM8.448 28.2016L8.43975 28.2181C12.2068 31.0401 17.1753 31.6866 21.5391 29.9225C20.9136 26.5587 19.9865 23.258 18.7687 20.0605C15.9718 21.0356 13.4148 22.5954 11.2679 24.6359C10.2098 25.6378 9.29374 26.7798 8.54535 28.03L8.5338 28.0481V28.0316L8.5041 28.0894L8.4843 28.1224L8.47275 28.1438L8.4447 28.2032L8.448 28.2016ZM24.3853 19.1266C23.5731 19.1277 22.7616 19.1829 21.9566 19.2916C23.0079 22.2294 23.8352 25.2426 24.4315 28.3055C27.2356 26.2843 29.1415 23.2496 29.7446 19.846C27.9988 19.3644 26.1962 19.1207 24.3853 19.1216V19.1266ZM2.99805 17.3281V17.4205C3.00105 20.5994 4.12586 23.6751 6.1743 26.1061C8.82796 22.0067 12.7533 18.8911 17.3481 17.2373L17.5445 17.1812C17.2524 16.5361 16.9785 15.9602 16.7046 15.4223C12.3023 16.6567 7.75483 17.2976 3.18285 17.3281H2.99805ZM23.8689 16.3282C25.9162 16.3358 27.9591 16.5224 29.9739 16.8859C29.869 14.0948 28.8927 11.4066 27.1821 9.19854C25.1859 11.4309 22.7015 13.1723 19.9221 14.2871L19.9699 14.2673L19.9188 14.2888C20.2141 14.9042 20.4732 15.4801 20.6893 15.9932C20.7405 16.1153 20.7834 16.2209 20.823 16.3232L20.8906 16.4882C21.8795 16.3785 22.8739 16.3251 23.8689 16.3282ZM10.522 5.31939C6.93381 7.09045 4.3167 10.3628 3.37755 14.2525C7.22268 14.1931 11.0493 13.7072 14.7873 12.8038H14.8088H14.8335L14.85 12.7823L14.9391 12.7609H14.949L15.015 12.7477H15.0299H15.0414L15.076 12.7378L15.142 12.7213L15.18 12.7048L15.2163 12.6949H15.2328H15.2493C13.0498 8.82234 10.7729 5.66589 10.5204 5.31939H10.522ZM16.5 3.93664C15.5968 3.93442 14.6954 4.02007 13.8089 4.19244C15.5374 6.58755 17.1235 9.08227 18.5592 11.6636C21.1301 10.748 23.4231 9.18793 25.2186 7.13274C22.7811 5.07123 19.6924 3.93902 16.5 3.93664Z" fill="black"/>
</svg>
