<svg width="32" height="33" viewBox="0 0 32 33" fill="none" xmlns="http://www.w3.org/2000/svg">
<path d="M15.9921 33C11.702 33 11.1963 32.9762 9.52215 32.8994C8.21661 32.8544 6.92798 32.5759 5.71171 32.076C3.60735 31.2168 1.94337 29.4704 1.12523 27.2621C0.667124 25.9814 0.42003 24.6283 0.394534 23.2606C0.296875 21.5078 0.296875 20.9333 0.296875 16.4671C0.296875 11.9533 0.319546 11.4263 0.394534 9.67898C0.420588 8.31318 0.667665 6.96193 1.12523 5.68297C1.94248 3.47186 3.60917 1.72388 5.71694 0.867265C6.93532 0.384616 8.22355 0.124692 9.52563 0.0988022C11.1911 -1.84034e-07 11.7387 0 15.9921 0C20.317 0 20.814 0.0237856 22.462 0.0988022C23.7673 0.124912 25.0591 0.384799 26.2812 0.867265C28.3884 1.72485 30.0547 3.4725 30.8729 5.68297C31.3387 6.98057 31.587 8.35294 31.6071 9.73935C31.7047 11.4922 31.7047 12.0649 31.7047 16.5293C31.7047 20.9937 31.6803 21.5792 31.6071 23.3119C31.5811 24.6808 31.3333 26.0352 30.8746 27.317C30.0543 29.5267 28.3878 31.2739 26.2812 32.1327C25.0608 32.6125 23.7719 32.8717 22.469 32.8994C20.8036 33 20.2577 33 15.9921 33ZM15.9328 2.89637C11.6672 2.89637 11.2242 2.91833 9.55877 2.99701C8.56472 3.01084 7.58027 3.2033 6.64819 3.56603C5.27183 4.11861 4.1827 5.25665 3.65041 6.69844C3.30201 7.68701 3.11853 8.73117 3.10805 9.7851C3.01563 11.558 3.01563 12.0228 3.01563 16.4671C3.01563 20.8583 3.03132 21.3907 3.10805 23.1527C3.12368 24.196 3.30703 25.229 3.65041 26.2083C4.18349 27.6491 5.27242 28.7863 6.64819 29.3388C7.57964 29.704 8.56448 29.8965 9.55877 29.9079C11.2469 30.0103 11.6916 30.0103 15.9328 30.0103C20.2106 30.0103 20.6536 29.9884 22.3051 29.9079C23.2998 29.8952 24.2849 29.7027 25.2174 29.3388C26.5853 28.7815 27.6674 27.6469 28.1995 26.2119C28.5472 25.2226 28.7305 24.1779 28.7418 23.1234H28.761C28.836 21.3743 28.836 20.9077 28.836 16.4378C28.836 11.9679 28.8168 11.4977 28.7418 9.75033C28.7261 8.70826 28.5427 7.67643 28.1995 6.69844C27.6686 5.26137 26.5864 4.12463 25.2174 3.56603C24.2851 3.20147 23.2998 3.00895 22.3051 2.99701C20.6187 2.89637 20.1775 2.89637 15.9328 2.89637ZM15.9921 24.9183C12.7308 24.9205 9.7897 22.8612 8.5401 19.701C7.29049 16.5406 7.97863 12.9016 10.2836 10.4812C12.5885 8.06081 16.0563 7.33568 19.0696 8.644C22.0829 9.95233 24.0481 13.0364 24.049 16.4579C24.0441 21.1256 20.4408 24.9092 15.9921 24.9183ZM15.9921 10.9652C13.1027 10.9652 10.7603 13.4229 10.7603 16.4543C10.7603 19.4858 13.1027 21.9433 15.9921 21.9433C18.8814 21.9433 21.2239 19.4858 21.2239 16.4543C21.2171 13.4256 18.8786 10.9723 15.9921 10.9652ZM24.3629 9.6607C23.326 9.65665 22.488 8.77254 22.4899 7.68465C22.4919 6.59676 23.3329 5.71592 24.3699 5.71592C25.4066 5.71592 26.2477 6.59674 26.2498 7.68463C26.2501 8.20951 26.0513 8.71296 25.6973 9.08375C25.3433 9.45455 24.863 9.66214 24.3629 9.6607Z" fill="black"/>
</svg>
