<svg width="33" height="33" viewBox="0 0 33 33" fill="none" xmlns="http://www.w3.org/2000/svg">
<path d="M18.3333 33H11V11H18.3333V14.6667C19.8964 12.6779 22.2669 11.4924 24.7958 11.4345C29.3436 11.4597 33.0132 15.1606 33 19.7083V33H25.6666V20.625C25.3733 18.5764 23.6166 17.0566 21.5471 17.061C20.642 17.0896 19.7875 17.4859 19.181 18.1584C18.5746 18.8311 18.2684 19.7217 18.3333 20.625V33ZM7.33333 33H0V11H7.33333V33ZM3.66666 7.33333C1.64162 7.33333 0 5.69171 0 3.66666C0 1.64162 1.64162 0 3.66666 0C5.69171 0 7.33333 1.64162 7.33333 3.66666C7.33333 4.63912 6.94702 5.57175 6.25938 6.25938C5.57175 6.94702 4.63912 7.33333 3.66666 7.33333Z" fill="black"/>
</svg>
