<svg width="33" height="34" viewBox="0 0 33 34" fill="none" xmlns="http://www.w3.org/2000/svg">
<path d="M3.02103 19.2031C3.10819 23.2906 3.15177 25.3342 4.65995 26.8482C6.16811 28.3621 8.26711 28.4147 12.4651 28.5202C15.0524 28.5853 17.6143 28.5853 20.2016 28.5202C24.3996 28.4147 26.4985 28.3621 28.0068 26.8482C29.5149 25.3342 29.5585 23.2906 29.6456 19.2031C29.6737 17.8889 29.6737 16.5825 29.6456 15.2682C29.5585 11.1808 29.5149 9.13713 28.0068 7.62323C26.4985 6.10932 24.3996 6.05659 20.2016 5.95111C17.6143 5.88609 15.0524 5.88609 12.4651 5.95109C8.26711 6.05656 6.16811 6.10929 4.65993 7.62321C3.15176 9.13712 3.10819 11.1808 3.02101 15.2682C2.99299 16.5825 2.993 17.8889 3.02103 19.2031Z" stroke="black" strokeWidth="3" strokeLinejoin="round"/>
<path d="M2.72266 9.06836L12.1321 14.3998C15.601 16.3653 17.0666 16.3653 20.5355 14.3998L29.9449 9.06836" stroke="black" strokeWidth="3" strokeLinejoin="round"/>
</svg>
