<svg width="39" height="31" viewBox="0 0 39 31" fill="none" xmlns="http://www.w3.org/2000/svg">
<path d="M18.3762 4.10337L13.6057 12.2277C13.4901 12.4301 13.3455 12.6325 13.3455 12.8927C13.3455 13.4131 13.7503 13.8179 14.5309 13.8179H16.6704C17.451 13.8179 18.0871 14.4828 18.0871 15.2635V17.6053C18.0871 18.386 17.451 19.051 16.6704 19.051H9.558C4.84532 19.051 1 15.2345 1 10.5219C1 5.80918 4.84532 1.96387 9.558 1.96387H17.133C17.9136 1.96387 18.5497 2.59993 18.5497 3.38056C18.5497 3.64077 18.4919 3.90098 18.3762 4.10337ZM13.7551 6.46453C14.0442 6.03084 13.9526 5.44778 13.519 5.15866C13.2057 4.94664 12.8781 4.97073 12.2516 5.28395L6.27647 8.27154C5.91507 8.44501 5.4332 8.64739 5.32237 8.81605C5.03325 9.24973 5.16817 9.82797 5.76569 10.2279L8.59908 12.1313C9.20142 12.5361 9.76038 12.4252 10.0495 11.9916L13.7551 6.46935V6.46453Z" fill="black" stroke="black" strokeMiterlimit="10"/>
<path d="M19.1379 3.1395L14.3674 11.2638C14.2518 11.4662 14.1072 11.6686 14.1072 11.9288C14.1072 12.4492 14.512 12.854 15.2926 12.854H17.4321C18.2127 12.854 18.8488 13.519 18.8488 14.2996V16.6415C18.8488 17.4221 18.2127 18.0871 17.4321 18.0871H10.3197C5.60704 18.0871 1.76172 14.2707 1.76172 9.558C1.76172 4.84532 5.60704 1 10.3197 1H17.8947C18.6753 1 19.3114 1.63607 19.3114 2.4167C19.3114 2.6769 19.2536 2.93711 19.1379 3.1395ZM14.5168 5.50066C14.8059 5.06698 14.7144 4.48391 14.2807 4.19479C13.9675 3.98277 13.6398 4.00686 13.0134 4.32008L7.03819 7.30767C6.67679 7.48114 6.19492 7.68353 6.08409 7.85218C5.79496 8.28586 5.92989 8.86411 6.52741 9.26406L9.3608 11.1674C9.96313 11.5722 10.5221 11.4614 10.8112 11.0277L14.5168 5.50548V5.50066Z" fill="#FF7262" stroke="black" strokeMiterlimit="10"/>
<path d="M22.6273 18.3373C21.0661 18.3373 19.7939 17.0362 19.7939 15.475C19.7939 13.9137 21.0661 12.6416 22.6273 12.6416C24.1886 12.6416 25.4896 13.9137 25.4896 15.475C25.4896 17.0362 24.1886 18.3373 22.6273 18.3373Z" fill="black" stroke="black" strokeMiterlimit="10"/>
<path d="M23.1078 17.8559C21.5465 17.8559 20.2744 16.5548 20.2744 14.9935C20.2744 13.4323 21.5465 12.1602 23.1078 12.1602C24.6691 12.1602 25.9701 13.4323 25.9701 14.9935C25.9701 16.5548 24.6691 17.8559 23.1078 17.8559Z" fill="#FF7262" stroke="black" strokeMiterlimit="10"/>
<path d="M13.4 28.008C13.0213 28.008 12.7387 28.0053 12.552 28V22.672C12.7813 22.6667 13.12 22.664 13.568 22.664C14.0213 22.664 14.36 22.6667 14.584 22.672C15.1067 22.6773 15.56 22.784 15.944 22.992C16.3333 23.1947 16.632 23.4853 16.84 23.864C17.0533 24.2427 17.16 24.6853 17.16 25.192C17.16 25.7467 17.0373 26.2347 16.792 26.656C16.552 27.0773 16.2107 27.4053 15.768 27.64C15.3307 27.8747 14.8213 27.9947 14.24 28C14.0533 28.0053 13.7733 28.008 13.4 28.008ZM14.232 26.992C14.7707 26.992 15.1947 26.8347 15.504 26.52C15.8133 26.2053 15.968 25.7733 15.968 25.224C15.968 24.728 15.8347 24.3467 15.568 24.08C15.3067 23.8133 14.928 23.68 14.432 23.68H13.712V26.992H14.232ZM17.8366 22.672H21.0766V23.68H18.9806V24.744H20.7166V25.72H18.9806V26.992H21.0766V28H17.8366V22.672ZM23.2868 28.104C22.9774 28.104 22.6814 28.0693 22.3988 28C22.1214 27.9307 21.8814 27.8373 21.6788 27.72L21.7748 26.648C22.0148 26.7973 22.2654 26.9147 22.5268 27C22.7934 27.08 23.0388 27.12 23.2628 27.12C23.5188 27.12 23.7268 27.0667 23.8868 26.96C24.0468 26.8533 24.1268 26.712 24.1268 26.536C24.1268 26.392 24.0734 26.2827 23.9668 26.208C23.8601 26.128 23.6921 26.0427 23.4628 25.952L23.2708 25.872C23.2441 25.8613 23.2148 25.8507 23.1828 25.84C23.1508 25.824 23.1134 25.808 23.0708 25.792C22.7721 25.6693 22.5321 25.5547 22.3508 25.448C22.1694 25.336 22.0121 25.1813 21.8788 24.984C21.7508 24.7867 21.6868 24.5307 21.6868 24.216C21.6868 23.704 21.8601 23.3013 22.2068 23.008C22.5534 22.7147 23.0361 22.568 23.6548 22.568C24.1241 22.568 24.6041 22.664 25.0948 22.856L24.9188 23.912C24.7214 23.8 24.5081 23.712 24.2788 23.648C24.0548 23.584 23.8414 23.552 23.6388 23.552C23.3881 23.552 23.1934 23.6027 23.0548 23.704C22.9161 23.8 22.8468 23.9307 22.8468 24.096C22.8468 24.24 22.8948 24.352 22.9908 24.432C23.0868 24.512 23.2414 24.5973 23.4548 24.688L23.7828 24.816C24.0921 24.9333 24.3481 25.048 24.5508 25.16C24.7534 25.272 24.9268 25.4347 25.0708 25.648C25.2148 25.856 25.2868 26.128 25.2868 26.464C25.2868 26.9813 25.1108 27.384 24.7588 27.672C24.4068 27.96 23.9161 28.104 23.2868 28.104ZM26.0709 22.672H27.2309V28H26.0709V22.672ZM30.8771 28.12C30.2851 28.12 29.7731 28.016 29.3411 27.808C28.9145 27.5947 28.5865 27.2907 28.3571 26.896C28.1278 26.5013 28.0131 26.032 28.0131 25.488C28.0131 24.9173 28.1331 24.4133 28.3731 23.976C28.6185 23.5387 28.9598 23.2 29.3971 22.96C29.8398 22.72 30.3491 22.6 30.9251 22.6C31.2558 22.6 31.5678 22.6373 31.8611 22.712C32.1598 22.7867 32.4238 22.8933 32.6531 23.032L32.3731 23.992C32.1651 23.864 31.9331 23.7653 31.6771 23.696C31.4211 23.6213 31.1705 23.584 30.9251 23.584C30.5731 23.584 30.2611 23.6613 29.9891 23.816C29.7225 23.9653 29.5145 24.1787 29.3651 24.456C29.2211 24.728 29.1491 25.0453 29.1491 25.408C29.1491 25.9413 29.3091 26.3627 29.6291 26.672C29.9545 26.976 30.3971 27.128 30.9571 27.128C31.1811 27.128 31.3891 27.112 31.5811 27.08V25.976H30.9091V25.04H32.6451V27.808C32.0958 28.016 31.5065 28.12 30.8771 28.12ZM33.5209 22.672H34.8809L37.0889 26.408V22.672H38.1529V28H36.8089L34.5849 24.24V28H33.5209V22.672Z" fill="black"/>
</svg>
